<svg xmlns="http://www.w3.org/2000/svg" viewBox="0 0 1450 180">
  <path fill="#508df2" d="M28.2 18.6c-1.8-3.33-4.24-6.38-5.1-10.13 9.54.05 19.08.27 28.6-.1l.88 1.23c20.46 35.24 40.75 70.58 61.28 105.78-4.98 8.6-9.93 17.22-14.98 25.8-4.54-8.17-9.36-16.18-13.96-24.3-4.86-8.5-9.84-16.92-14.72-25.4-13.78-24.42-28.03-48.57-42-72.9z"/>
  <path fill="#dc5146" d="M52.58 9.6l-.6-1.02c8.76-.13 17.53-.06 26.3-.07 1.77-.4 2.5 1.5 3.28 2.7 13.84 24.2 27.9 48.2 41.76 72.3 2.5 4.3 3 9.8.65 14.2-3.14 6.1-6.84 11.8-10.1 17.8C93.32 80.2 73.03 44.9 52.57 9.7z"/>
  <path fill="#7a7a7a" d="M224.36 27.97c13.25-7.24 28.9-9.5 43.75-7.24 13.1 2.16 25.5 8.44 34.9 17.82L290.1 51.5c-10.45-10.2-25.6-15.1-40-12.7-13.56 1.7-26.2 9.7-33.6 21.2-8.33 12.4-10.23 28.7-5.67 42.9 4.07 12.8 13.7 23.7 25.97 29.2 18.1 8.1 41.75 4.8 55.2-10.5 5.1-5.9 7.47-13.58 8.67-21.16-14.45-.04-28.9 0-43.34-.03 0-6.3-.07-12.7 0-19 20.45 0 40.9.1 61.3 0 2.8 15.3.35 31.8-7.6 45.3-7.52 12.1-19.7 21.3-33.34 25.4-15.3 4.4-32 3.9-46.7-2.1-17.5-7-31.9-21.5-38.6-39.2-4.4-11.3-5.3-23.9-3.1-35.8 3.8-19.8 17.2-37.4 35-46.8zm232.3 36.37c9.47-25.8 35.8-44.54 63.37-44.35 17.2-.8 34.58 6 46.8 18.1l-.2.9c-3.94 4.3-8.23 8.3-12.37 12.4-10.4-10.4-25.8-15.1-40.22-12.7-10.44 1.5-20.38 6.5-27.64 14.2-10.64 10.7-15.44 26.7-13.2 41.6 2.16 15.7 12.5 30.2 26.97 37 17.54 8.2 40.65 5.8 54.48-8.4 6.14-6 9.2-14.5 10.18-22.8-14.37 0-28.75-.1-43.13 0-.05-6.4-.05-12.7 0-19.1 20.4-.1 40.82.1 61.24-.1 2.6 12.5.9 25.8-3.73 37.7-6.2 15.2-19.7 27.1-35.3 32.3-16.1 5.1-34.1 4.6-49.6-2.1-15.7-6.65-28.8-19.25-35.8-34.8-7.2-15.6-7.8-34.15-1.7-50.2zM375.1 23.28c-13.42.06-26.84-.05-40.25.06V151.4c14.1.1 28.23.14 42.34-.03 17.5-.23 35.5-6.88 47.3-20.2 10.7-12.04 15.7-28.46 15.3-44.44.1-17.5-6.4-35.47-19.5-47.34-12.2-11.1-29-16.3-45.3-16.2zm-3.9 19.27c9.4.04 18.74.83 27.33 4.9 9.6 4.4 16.76 13.27 19.63 23.37 3.28 11.46 3.13 24-.7 35.32-3.43 10.13-11.5 18.5-21.52 22.25-13.2 5.2-27.63 3.2-41.46 3.6-.15-29.8.02-59.6-.1-89.4 5.53 0 11.2-.2 16.82-.2zm1012.67 1.1c7.72-11.48 23.9-13.85 36.1-8.86-.43 4.7-2.25 9.1-3.67 13.6-3.63-1.1-7.4-2.5-11.2-1.6-4.34.6-8.05 3.9-9.45 8-1.8 5.2-.88 10.8-1 16.2 7 .2 14.02-.1 21.04.1v14.1c-7 .2-14.1-.1-21.1.1-.2 22 0 44-.1 66.1-5.1 0-10.2.1-15.2-.1-.2-22.1 0-44.1-.1-66.1-5-.1-10 0-15-.1-.1-4.7-.1-9.5 0-14.2 4.9-.1 9.9 0 14.9-.1.1-9.2-1.2-19.5 4.5-27.4zM687.1 33.4c-12.83.06-25.64-.04-38.46.06 0 39.36-.02 78.73 0 118.1 7.45.43 14.9-.15 22.37.05 9.4-.2 18.9.8 28.2-1.1 11.3-2 22-7.4 29.9-15.7 10.9-11 16-26.7 15.7-42 .4-15.5-4.8-31.5-16.1-42.5-10.7-11.2-26.3-16.5-41.6-16.8zm-1 14.47c11.07-.1 22.6 3.34 30.58 11.26 7.02 6.62 11.04 16 11.98 25.53 1.37 8.65.37 17.62-2.2 25.96-3.43 10.62-11.77 19.46-22.2 23.43-12.86 5.15-26.9 2.9-40.36 3.34-.17-29.9-.05-59.7-.06-89.5 7.42-.1 14.85 0 22.27-.1zm92.25-13.7c4.82-2.3 11.42.36 12.87 5.6 1.67 4.8-1.5 10.26-6.25 11.67-5.96 2.13-12.8-3.45-12.37-9.64.3-3.37 2.74-6.25 5.75-7.64zm28-.1c5.8-2.75 13.54 2.2 13 8.7.04 5.96-6.72 10.84-12.3 8.58-3.86-1.38-7.04-5.3-6.46-9.57-.1-3.5 2.7-6.36 5.7-7.7zM1088.5 151.5c0-39.34-.1-78.7.06-118.04 5.02-.07 10.04-.04 15.07-.05.3 39.4.1 78.8.1 118.2-5.08.1-10.15.2-15.22 0zm102.05-118.1c-2.58 0-5.15.03-7.72.1-.1 10.74 0 21.47-.06 32.2-.16 5.46.97 10.86.66 16.33-7.12-9.83-19.48-15.18-31.52-13.8-18.4 1.55-32.7 18.63-34.6 36.45-2.8 17.85 5.6 37.5 21.8 46.15 14.7 8.02 34.8 3.8 44.4-10.04.2 3.5.3 7.1.3 10.7 4.9.1 9.8.1 14.6 0 .2-39.4.1-78.8.1-118.1-2.5-.1-5.1-.1-7.7-.1zm-32.07 48.93c6 .17 11.94 2.52 16.2 6.78 9.16 8.5 10.88 22.6 7.07 34.1-3.3 9.6-12.32 17.3-22.66 17.3-9.9.9-19.3-5.3-23.7-13.9-3.5-6.3-3.5-13.8-2.9-20.9 1.3-9.9 8.2-19.1 17.9-22.1 2.5-.8 5.3-1.2 8-1.1zm-306.16-5.3c6.5-6.3 15.8-8.97 24.7-8.93 8.36-.3 16.87 2.07 23.7 7 3.78 2.7 7.08 6.4 8.53 10.9-4.36 1.88-8.72 3.76-13.18 5.4-5.82-9.74-20-13.06-29.6-7.12-3.18 1.88-5.78 5.5-4.9 9.36.83 3.62 4.2 5.9 7.46 7.17 10.98 4.2 23.6 4.5 33.26 11.7 6 4.3 9.2 12 8.4 19.3-.6 8.4-6.8 15.1-13.9 18.8-13.2 6.7-30.4 5.7-42.1-3.5-5.1-3.9-9-9.2-11.2-15.3 4.5-1.7 8.9-3.7 13.4-5.4 3.1 7 8.9 13 16.5 14.8 7.2 1.4 15.9.1 20.5-6.2 2.9-4.7-.3-10.9-5-13-8.7-4.3-18.6-4.6-27.4-8.4-5.8-2.3-11.4-6.1-14-11.9-3.9-8-1.8-18.3 4.6-24.3zm76.24-.97c8.2-7.2 19.83-8.82 30.36-7.64 9 1.3 18.03 5.55 23.4 13.13 1.06 1.35 1.45 3.05 1.84 4.7-4.34 1.67-8.57 3.58-12.95 5.14-5.8-9.8-20.1-13.1-29.6-7.1-3.1 1.9-5.7 5.6-4.7 9.4.9 3.6 4.3 5.7 7.5 7 11 4.1 23.6 4.4 33.2 11.6 7.5 5.2 10.6 15.6 7.5 24.1-2.5 7.4-9.1 12.6-16.2 15.5-7.1 2.5-15 3.6-22.5 2-12.1-2.1-23.4-10.6-27.2-22.5 4.4-1.8 8.8-3.7 13.2-5.5 3.2 7 9 13.1 16.7 14.8 6.8 1.2 14.6.1 19.5-5.1 3-3 2.6-8.2-.2-11.2-2.3-2.6-5.5-4.1-8.7-5.1-8.7-2.7-18-3.8-26.1-8-4.7-2.5-9-6.3-10.9-11.4-3.4-8.3-.7-18.5 6.2-24.2zM1036.2 68c-4.64-.06-9.3.6-13.65 1.97C1010.7 73.8 1001.5 84 997.7 95.72c-2.64 8.02-2.87 16.7-1.6 25 2.08 12.43 9.96 23.9 21.23 29.7 11.84 6.05 26.48 5.86 38.36-.02 7.4-3.84 13.9-9.94 17.5-17.58-4.4-2.25-8.8-4.4-13.3-6.54-2.9 4.14-6 8.35-10.4 10.86-8.8 5.25-20.8 4.24-28.7-2.2-6.4-4.83-10-12.87-9.8-20.82 21.1-.17 42.2.06 63.4-.1.5-10.75-1.5-22.04-7.8-30.96-6.9-10-18.8-14.9-30.6-15.06zm-.94 14.3c4.77-.03 9.58 1.23 13.7 3.6 5.53 3.26 8.75 9.3 9.75 15.52-9.5.7-19-.1-28.5.25-6-.17-12.1.2-18.1-.27 1.8-5.76 4.6-11.5 9.8-14.93 4-2.8 8.7-4.13 13.5-4.16zm216.54-14.22c-1.78.04-3.55.16-5.3.35-12.87 1.56-24.5 9.9-30.43 21.36-4.77 9-5.66 19.6-4.36 29.5 1.4 10.3 6.9 20.2 15.1 26.7 16 12.9 41.9 11.6 55.9-3.7 11.9-11.8 14.5-30.5 9.6-46-3.7-11.8-13.1-21.8-24.8-26-5-1.9-10.3-2.5-15.6-2.4zm.95 14.24c4.1 0 8.2 1 11.85 2.9 7.6 4 13.06 11.85 14.15 20.4.85 6.8.48 14.02-2.6 20.26-4.18 8.65-13.4 14.87-23.12 14.58-9.26.38-18.28-4.98-22.75-13.03-3.85-6.5-4.2-14.4-3.4-21.74 1.23-10.2 8.7-19.5 18.6-22.3 2.35-.8 4.8-1.1 7.27-1.1zm76.48-8.36c6.62-5.04 15.32-6.38 23.45-5.68.05 5.6.1 11.2-.05 16.82-8.37-1.82-17.9-.2-24.12 6.03-4.5 4.2-6.7 10.45-6.7 16.57.1 14.6.1 29.23 0 43.84-5 .03-10.1.4-15.1.06-.1-26.8 0-53.58 0-80.37 4.9-.17 9.8-.22 14.7.04-.1 4.08-.1 8.16.3 12.22 2.2-3.5 4.3-7.2 7.7-9.6zm-569.66-2.8c5-.1 10-.05 15.02-.03v41.68c-.1 7.3-.5 15.3 4.1 21.4 4.3 5.5 11.9 6.8 18.4 6.2 7.4-.7 13.3-6.5 16.3-13 3.4-7.3 2-15.7 2.3-23.5.2-10.8-.5-21.7.3-32.6 5 0 10.1-.1 15.1.2v80.2c-5 .2-9.9.2-14.8.1-.1-3.4-.1-6.8-.2-10.1-2.9 2.7-5.4 5.9-8.8 8-6.6 4.4-14.84 6.5-22.7 5.2-6.45-.9-13-3.3-17.4-8.2-6.2-6.44-8.1-15.8-8.05-24.44.1-16.9-.1-33.75.1-50.62z"/>
  <path fill="#199f5d" d="M22.4 173.57c16.12-27.25 31.58-54.9 47.8-82.1 4.88 8.5 9.86 16.9 14.72 25.4-11.05 18.83-21.97 37.73-32.8 56.67-9.9.1-19.82.05-29.72.03z"/>
  <path fill="#fac110" d="M84.92 116.87c4.6 8.13 9.42 16.14 13.96 24.3-6.3 10.77-12.5 21.6-18.75 32.4-9.34 0-18.68.02-28.02-.03C63 154.6 73.9 135.7 85 116.87z"/>
</svg>
